<?xml version="1.0" encoding="UTF-8"?>
<svg id="Layer_1" data-name="Layer 1" xmlns="http://www.w3.org/2000/svg" viewBox="0 0 460.23 90.89">
  <defs>
    <style>
      .cls-1 {
        fill: #191772;
        stroke-width: 0px;
      }
    </style>
  </defs>
  <rect class="cls-1" x="335.8" y="6.34" width="12.01" height="12.03"/>
  <rect class="cls-1" x="335.8" y="30.33" width="12.01" height="55.32"/>
  <path class="cls-1" d="m377.24,65.78c-2.91-3.51-4.73-7.96-4.95-12.82-.01-.26-.02-.53-.02-.8,0-.06,0-.69,0-.69v-21.16h11.98v-12.01h-11.98V6.26h-12.01v45.73c0,18.29,14.67,33.21,32.86,33.64v-12.01c-6.38-.24-12.07-3.24-15.88-7.85Z"/>
  <path class="cls-1" d="m112.87,85.92c8.24,0,15.8-2.98,21.66-7.92v7.85h12.01v-33.59c0-18.56-15.1-33.66-33.66-33.66s-33.66,15.1-33.66,33.66,15.1,33.66,33.66,33.66Zm0-55.32c11.94,0,21.66,9.72,21.66,21.66s-9.72,21.66-21.66,21.66-21.66-9.72-21.66-21.66,9.72-21.66,21.66-21.66Z"/>
  <path class="cls-1" d="m457.19,49.45c-.01-.12-.02-.24-.03-.37-.08-.89-.21-1.76-.36-2.62-.03-.14-.05-.29-.08-.43-.16-.86-.36-1.71-.58-2.55-.03-.11-.06-.22-.1-.34-.25-.87-.52-1.74-.84-2.58,0-.02-.01-.04-.02-.05-.34-.9-.71-1.78-1.12-2.63,0,0,0,0,0-.01-.4-.84-.84-1.66-1.3-2.46-.03-.05-.06-.11-.09-.16-.46-.78-.96-1.55-1.48-2.29-.03-.05-.07-.09-.1-.14-.54-.76-1.1-1.49-1.7-2.2,0,0,0,0,0,0h0c-6.18-7.33-15.42-12.01-25.74-12.01-8.12,0-15.58,2.89-21.4,7.7-.42.34-.82.7-1.22,1.06-6.78,6.16-11.04,15.05-11.04,24.91,0,3.4.51,6.68,1.45,9.78.28.91.59,1.8.94,2.67.16.39.32.77.49,1.16,5.24,11.8,17.06,20.06,30.78,20.06,0,0,0,0,0,0,.95,0,1.88-.05,2.81-.13.12,0,.24-.02.36-.03.89-.08,1.76-.21,2.63-.36.14-.03.29-.05.43-.08.86-.16,1.72-.36,2.56-.58.11-.03.22-.06.33-.09.88-.25,1.74-.52,2.58-.84.02,0,.03-.01.05-.02.9-.34,1.78-.71,2.64-1.12h0c.84-.4,1.66-.84,2.46-1.31.05-.03.1-.06.15-.09.79-.46,1.55-.96,2.3-1.48.05-.03.09-.06.13-.1.76-.54,1.49-1.1,2.2-1.7,0,0,0,0,0,0,2.58-2.17,4.8-4.74,6.63-7.59l-9.97-6.65c-3.84,6.09-10.61,10.15-18.32,10.15-10.09,0-18.55-6.95-20.95-16.3h46.34s7.84-.01,7.84-.01c.28-1.74.43-3.52.43-5.34h0c0-.96-.05-1.89-.13-2.82Zm-33.54-18.84c4.73,0,9.1,1.54,12.66,4.12,3.68,2.67,6.47,6.47,7.91,10.89h-41.17c1.07-3.3,2.9-6.26,5.3-8.66,3.92-3.92,9.34-6.35,15.31-6.35Z"/>
  <path class="cls-1" d="m171.91,65.78c-2.91-3.51-4.73-7.96-4.95-12.82-.01-.26-.02-.53-.02-.8,0-.06,0-.69,0-.69v-21.16h11.98v-12.01h-11.98V6.26h-12.01v45.73c0,18.29,14.67,33.21,32.86,33.64v-12.01c-6.38-.24-12.07-3.24-15.88-7.85Z"/>
  <path class="cls-1" d="m218.69,85.92c8.24,0,15.8-2.98,21.66-7.92v7.85h12.01v-33.59c0-18.56-15.1-33.66-33.66-33.66s-33.66,15.1-33.66,33.66,15.1,33.66,33.66,33.66Zm0-55.32c11.94,0,21.66,9.72,21.66,21.66s-9.72,21.66-21.66,21.66-21.66-9.72-21.66-21.66,9.72-21.66,21.66-21.66Z"/>
  <path class="cls-1" d="m294.06,18.56c-8.24,0-15.8,2.98-21.66,7.92V6.43s-12.01,0-12.01,0v45.8c0,18.56,15.1,33.66,33.66,33.66,18.56,0,33.66-15.1,33.66-33.66s-15.1-33.66-33.66-33.66Zm0,55.32c-11.94,0-21.66-9.72-21.66-21.66s9.72-21.66,21.66-21.66c11.94,0,21.66,9.72,21.66,21.66s-9.72,21.66-21.66,21.66Z"/>
  <path class="cls-1" d="m3.64,52.22c0,18.56,15.1,33.66,33.66,33.66,18.56,0,33.66-15.1,33.66-33.66V6.43s-12.01,0-12.01,0v20.05c-5.86-4.94-13.41-7.92-21.66-7.92-18.56,0-33.66,15.1-33.66,33.66Zm12.01,0c0-11.94,9.72-21.66,21.66-21.66,11.94,0,21.66,9.72,21.66,21.66s-9.72,21.66-21.66,21.66c-11.94,0-21.66-9.72-21.66-21.66Z"/>
</svg>
